<?xml version="1.0" encoding="UTF-8" standalone="no"?>
<!-- Created with Inkscape (http://www.inkscape.org/) -->

<svg
   xmlns:dc="http://purl.org/dc/elements/1.1/"
   xmlns:cc="http://creativecommons.org/ns#"
   xmlns:rdf="http://www.w3.org/1999/02/22-rdf-syntax-ns#"
   xmlns:svg="http://www.w3.org/2000/svg"
   xmlns="http://www.w3.org/2000/svg"
   xmlns:sodipodi="http://sodipodi.sourceforge.net/DTD/sodipodi-0.dtd"
   xmlns:inkscape="http://www.inkscape.org/namespaces/inkscape"
   width="282.20758"
   height="282.34128"
   id="svg2"
   version="1.1"
   inkscape:version="0.48.4 r9939"
   sodipodi:docname="logo.svg">
  <defs
     id="defs4" />
  <sodipodi:namedview
     id="base"
     pagecolor="#ffffff"
     bordercolor="#666666"
     borderopacity="1.0"
     inkscape:pageopacity="0.0"
     inkscape:pageshadow="2"
     inkscape:zoom="0.98994949"
     inkscape:cx="30.423383"
     inkscape:cy="143.88131"
     inkscape:document-units="px"
     inkscape:current-layer="layer1"
     showgrid="false"
     fit-margin-top="0"
     fit-margin-left="0"
     fit-margin-right="0"
     fit-margin-bottom="0"
     inkscape:window-width="779"
     inkscape:window-height="644"
     inkscape:window-x="2035"
     inkscape:window-y="86"
     inkscape:window-maximized="0" />
  <metadata
     id="metadata7">
    <rdf:RDF>
      <cc:Work
         rdf:about="">
        <dc:format>image/svg+xml</dc:format>
        <dc:type
           rdf:resource="http://purl.org/dc/dcmitype/StillImage" />
        <dc:title></dc:title>
      </cc:Work>
    </rdf:RDF>
  </metadata>
  <g
     inkscape:label="Layer 1"
     inkscape:groupmode="layer"
     id="layer1"
     transform="translate(-333.67121,-484.48849)">
    <path
       style="fill:#000000"
       d="m 457.78574,766.59092 c -34.25892,-5.12673 -60.06386,-17.80316 -83.06614,-40.80545 -20.37488,-20.37487 -32.46905,-42.65865 -39.11276,-72.06614 -2.5766,-11.40496 -2.58206,-43.42968 -0.009,-55.5 9.15567,-42.95728 36.51977,-78.87514 74.9787,-98.41632 55.60521,-28.2533 123.14594,-16.65887 166.28928,28.54617 22.0822,23.13745 35.5238,52.89655 38.43413,85.09143 5.27929,58.40113 -25.92211,113.77138 -78.51375,139.33111 -21.20626,10.30632 -34.86182,13.53894 -59,13.9668 -9.35,0.16574 -18.35,0.0993 -20,-0.1476 z m 43.54017,-8.37978 c 27.9106,-5.68781 51.34814,-18.88319 71.64492,-40.3362 18.43197,-19.48197 30.32505,-43.60029 34.82387,-70.62036 2.10751,-12.65775 1.59311,-37.19673 -1.02791,-49.03525 -11.60974,-52.43843 -51.97704,-92.82026 -104.48105,-104.51865 -11.72551,-2.61256 -37.71877,-3.1241 -49.7533,-0.97914 -19.38285,3.45469 -38.12435,10.97757 -54.09833,21.7152 -10.29399,6.91957 -29.52737,26.27345 -36.05669,36.28259 -15.49897,23.75919 -22.48193,47.22969 -22.46282,75.5 0.0139,20.62003 2.18433,31.78443 9.95656,51.21623 10.43075,26.07854 33.42425,52.44535 56.91458,65.26436 2.75,1.50072 5.45,3.0758 6,3.50018 1.84935,1.42698 19.65387,8.18962 26.35807,10.01151 6.27131,1.70425 16.33145,3.55188 24.14193,4.43387 7.56435,0.85419 28.46702,-0.48345 38.04017,-2.43434 z m -48.87593,-5.50116 c -4.03468,-0.73086 -7.53851,-1.53158 -7.7863,-1.77938 -0.64349,-0.64349 1.65437,-19.06435 2.48744,-19.94066 0.38137,-0.40117 5.96768,-0.21265 12.41401,0.41893 l 11.72061,1.14832 0,10.83107 0,10.83107 -5.75,-0.0903 c -3.1625,-0.0496 -9.05109,-0.68823 -13.08576,-1.4191 z m 25.83576,-9.20519 0,-11.0096 7.75,-0.65852 c 4.2625,-0.36219 9.58991,-0.91447 11.83869,-1.22729 l 4.0887,-0.56876 1.1613,7.03198 c 0.63872,3.86759 1.16131,8.57938 1.16131,10.47064 0,3.22747 -0.26926,3.50646 -4.38434,4.54265 -2.41139,0.6072 -8.26139,1.402 -13,1.76624 l -8.61566,0.66225 0,-11.00959 z m -46.52766,3.7661 c -9.9893,-3.59937 -13.47234,-5.38049 -13.47234,-6.88936 0,-2.19378 3.10241,-14.52693 3.8649,-15.36431 1.15795,-1.27168 17.63698,3.62337 17.61528,5.23258 -0.0617,4.57231 -1.79165,18.04399 -2.36242,18.39675 -0.37019,0.22879 -2.91063,-0.39025 -5.64542,-1.37566 z m 79.12787,-1.90176 c -0.87856,-5.91907 -1.9075,-15.60951 -1.7148,-16.1498 0.0981,-0.275 2.97649,-1.21637 6.39646,-2.09193 3.41997,-0.87557 7.39383,-1.92134 8.8308,-2.32394 2.45741,-0.68851 2.68794,-0.44536 3.8794,4.09193 0.6967,2.65317 1.60747,6.5628 2.02393,8.68807 l 0.75719,3.86414 -6.13659,2.77579 c -3.37513,1.52669 -7.79216,3.23023 -9.81563,3.78566 l -3.67903,1.00987 -0.54173,-3.64979 z M 408.78574,736.4803 c -1.65,-0.86789 -5.475,-3.37788 -8.5,-5.57777 -3.025,-2.19988 -5.60182,-4.06788 -5.72627,-4.1511 -0.23959,-0.16022 3.70438,-10.83049 4.18323,-11.31757 0.638,-0.64897 16.51732,6.36653 16.49038,7.28547 -0.0161,0.55 -0.79838,4.22626 -1.73833,8.16947 l -1.70901,7.16947 -3,-1.57797 z m 127.90145,-0.97007 c -0.36145,-1.535 -1.22691,-5.0409 -1.92325,-7.7909 -0.69634,-2.75 -0.9763,-5.28859 -0.62214,-5.64131 1.26098,-1.25585 15.45839,-6.78238 16.21784,-6.31302 1.20099,0.74225 4.14269,10.29487 3.49366,11.34501 -0.4752,0.76889 -10.62313,7.71932 -15.28824,10.47108 -0.79938,0.47152 -1.44751,-0.24322 -1.87787,-2.07086 z m -82.60942,-11.21582 c -2.58938,-0.36173 -4.97638,-0.92609 -5.30443,-1.25414 -0.64231,-0.64231 2.42021,-19.10697 3.41331,-20.57965 0.34807,-0.51616 4.47484,-0.48351 9.84909,0.0779 l 9.25,0.96634 0,10.85721 0,10.85722 -6.25,-0.13361 c -3.4375,-0.0735 -8.36859,-0.42958 -10.95797,-0.79131 z m 24.20797,-9.84681 0,-11.05763 7.75,-0.66392 c 4.2625,-0.36516 8.3871,-0.74105 9.16579,-0.83532 1.575,-0.19068 2.60901,3.01482 4.52578,14.03019 1.0234,5.88138 1.01452,7.29315 -0.0485,7.70106 -0.71589,0.27472 -5.8222,0.81083 -11.34735,1.19137 l -10.04572,0.69189 0,-11.05764 z m -46.25,5.56251 c -4.734,-1.23074 -7.75,-2.52844 -7.75,-3.33459 0,-1.77684 5.90457,-17.73622 6.95603,-18.80137 0.83076,-0.84156 10.80541,0.96167 13.07355,2.36346 0.90813,0.56126 0.79012,2.72569 -0.49665,9.10895 -0.92831,4.60502 -1.88655,9.38527 -2.12943,10.62277 -0.24288,1.2375 -0.77053,2.20626 -1.17255,2.15281 -0.40202,-0.0535 -4.21845,-1.00388 -8.48095,-2.11203 z m 75.67668,0.86881 c -0.24264,-0.63777 -1.26452,-5.5166 -2.27085,-10.84183 l -1.82969,-9.68225 6.94498,-1.70195 c 5.86608,-1.43756 7.08053,-1.48692 7.81761,-0.31776 1.62427,2.57644 6.76588,18.85607 6.08615,19.27028 -0.37119,0.22619 -2.69988,0.96719 -5.17488,1.64665 -9.35651,2.56866 -11.12067,2.81665 -11.57332,1.62686 z m -126.80555,-6.67833 c -6.47129,-6.85991 -7.21918,-8.25918 -6.04704,-11.31373 0.45559,-1.18727 2.24485,-0.48126 8.66909,3.42064 4.45225,2.70417 8.30888,5.13056 8.57028,5.39196 0.68225,0.68225 -2.82225,9.51987 -3.77504,9.51987 -0.43789,0 -3.77567,-3.15844 -7.41729,-7.01874 z m 177.25389,2.26874 -1.50672,-4.75 8.31935,-5.17771 c 7.84737,-4.88397 8.37829,-5.0676 9.35813,-3.23675 0.62318,1.16442 0.68715,2.56927 0.1599,3.51142 -1.12042,2.00208 -13.33314,14.40304 -14.18441,14.40304 -0.35174,0 -1.31755,-2.1375 -2.14625,-4.75 z m -148.87502,-4.28636 c -3.575,-1.58575 -6.89025,-3.03137 -7.36721,-3.21249 -0.85177,-0.32343 5.86805,-14.47804 8.59141,-18.09692 1.34003,-1.78066 1.59742,-1.75788 7.29772,0.64594 3.24979,1.37044 6.03641,2.87603 6.19248,3.34577 0.43073,1.29633 -6.34692,19.74268 -7.34383,19.98729 -0.47881,0.11748 -3.79557,-1.08383 -7.37057,-2.66959 z m 119.25641,-5.71364 c -1.67048,-4.8125 -3.33067,-9.46187 -3.68931,-10.33192 -0.50318,-1.22069 0.85058,-2.22057 5.92841,-4.37867 3.61927,-1.53821 6.73531,-2.62635 6.92454,-2.41808 1.03495,1.13906 9.57995,17.70487 9.57995,18.57222 0,0.80001 -13.65177,7.30645 -15.33036,7.30645 -0.2068,0 -1.74275,-3.9375 -3.41323,-8.75 z M 386.6131,700.42342 c -3.94495,-2.58725 -7.46563,-4.99977 -7.82374,-5.36116 -1.08458,-1.09454 8.90659,-18.84293 10.60733,-18.84293 0.60128,0 12.17666,7.02705 15.64694,9.49877 0.49758,0.3544 -9.91916,19.50073 -10.58484,19.45532 -0.37018,-0.0252 -3.90074,-2.16274 -7.84569,-4.75 z m 162.41153,-4.46634 c -2.6186,-5.08076 -4.7561,-9.52867 -4.75,-9.88424 0.0114,-0.66129 14.32725,-9.85351 15.34577,-9.85351 0.8876,0 10.66534,16.2659 10.66534,17.74249 0,1.11166 -14.471,11.28218 -16,11.24512 -0.275,-0.007 -2.6425,-4.1691 -5.26111,-9.24986 z m -184.16762,-2.62043 c -14.02722,-23.09129 -21.3488,-53.66699 -18.61434,-77.73547 2.57861,-22.6968 7.9389,-39.13702 18.38315,-56.38185 23.96744,-39.57342 68.44608,-63.60921 114.15992,-61.69082 38.56901,1.61856 73.26648,19.19115 97.12832,49.19082 31.98449,40.21164 36.04037,98.86332 9.91786,143.42123 -2.60494,4.44332 -5.03099,8.06391 -5.39122,8.04576 -0.36023,-0.0182 -2.53862,-3.9903 -4.84087,-8.82698 -7.98958,-16.78486 -22.44548,-33.4638 -37.81409,-43.62916 -19.59221,-12.959 -35.95533,-18.28853 -59,-19.2165 -31.01938,-1.2491 -59.5402,9.50103 -82.12562,30.95497 -9.71528,9.22857 -16.72939,18.83247 -23.01325,31.51034 l -5.13888,10.36783 -3.65098,-6.01017 z m 44.52436,-58.18541 c 2.57623,-1.83444 2.90437,-2.66297 2.90437,-7.33334 0,-2.89588 0.30915,-5.57439 0.68701,-5.95224 0.37785,-0.37786 2.37144,0.9578 4.4302,2.96812 l 3.7432,3.65514 3.81979,-1.51702 c 3.41078,-1.35458 3.84951,-1.93118 4.09724,-5.3848 1.47559,-20.57128 5.95872,-39.22595 11.73026,-48.81054 l 3.38649,-5.62382 -10.65618,0.28329 -10.65619,0.2833 -2.11984,11 c -1.16591,6.05 -2.71901,14.2625 -3.45131,18.25 -0.73231,3.9875 -1.63085,7.25 -1.99676,7.25 -0.3659,0 -1.75622,-1.16632 -3.0896,-2.59182 -4.75365,-5.08211 -5.66501,-4.97028 -6.88044,0.8443 -1.45568,6.9639 -2.31042,8.31689 -4.14855,6.56684 -0.76743,-0.73066 -4.12757,-3.90586 -7.46698,-7.05601 l -6.07167,-5.72755 -5.36824,4.88382 -5.36823,4.88382 3.3667,3.8483 c 5.09606,5.82503 25.43684,27.3483 25.84579,27.3483 0.19721,0 1.66554,-0.93064 3.26294,-2.06809 z m 148.89718,-13.41188 13.97898,-14.97997 -4.6983,-4.77003 c -2.58407,-2.62352 -5.16522,-4.76008 -5.7359,-4.74793 -0.57067,0.0122 -4.08552,2.95727 -7.81078,6.54469 -3.72525,3.58742 -7.18219,6.2698 -7.6821,5.96085 -0.4999,-0.30896 -1.46107,-3.02907 -2.13594,-6.04469 -0.67487,-3.01562 -1.6965,-5.48295 -2.27029,-5.48295 -0.5738,0 -2.52045,1.43174 -4.32589,3.18165 -1.80545,1.7499 -3.54096,2.92331 -3.8567,2.60758 -0.31573,-0.31574 -1.90706,-7.70998 -3.53628,-16.43165 -1.62922,-8.72167 -3.18864,-16.58423 -3.46539,-17.47237 -0.39566,-1.26977 -2.54886,-1.76495 -10.07775,-2.31761 -5.26602,-0.38655 -9.82199,-0.45542 -10.12436,-0.15304 -0.30238,0.30237 0.83561,3.149 2.52884,6.32585 6.0308,11.31493 9.00694,23.21302 9.89011,39.53897 l 0.63723,11.77937 4.09585,1.84171 4.09586,1.84171 4.11254,-3.94438 4.11254,-3.94439 0.696,6.3233 c 0.70208,6.37864 3.2121,10.16821 6.33584,9.56573 0.6913,-0.13334 7.54745,-6.98342 15.23589,-15.2224 z m -81.24161,-11.44149 c 0.96184,0.72679 2.98161,2.43614 4.48837,3.79855 1.50676,1.36241 2.92322,2.28491 3.14769,2.05001 0.22447,-0.23491 -0.4507,-3.1271 -1.50037,-6.4271 l -1.90849,-6 4.0108,-3.63587 c 2.20594,-1.99973 4.0108,-3.88871 4.0108,-4.19774 0,-0.30903 -2.32713,-0.69789 -5.1714,-0.86413 l -5.17139,-0.30226 -1.98765,-5.97713 c -2.16231,-6.50236 -2.50511,-6.33893 -4.6717,2.22713 l -1.07495,4.25 -5.16966,0 -5.16967,0 4.07544,4.25 4.07543,4.25 -1.34794,5 c -2.04396,7.58182 -1.76075,7.94056 3.11469,3.9455 3.91602,-3.20888 4.72856,-3.5166 6.25,-2.36696 z m 5.59836,-63.82854 c 0.33414,-4.8125 0.90251,-15.8375 1.26306,-24.5 l 0.65553,-15.75 -9.78648,0 -9.78648,0 0.66001,12.75 c 0.36301,7.0125 0.94911,18.0375 1.30244,24.5 l 0.64244,11.75 7.22098,0 7.22097,0 0.60753,-8.75 z m 43.81961,2.21613 3.91157,-3.53387 4.31262,3.53387 c 2.37194,1.94363 4.56252,3.53387 4.86796,3.53387 0.30543,0 -0.29469,-2.80745 -1.33362,-6.23879 l -1.88895,-6.23878 3.98062,-3.3859 c 2.18935,-1.86224 3.98063,-3.77978 3.98063,-4.26121 0,-0.48143 -2.37526,-0.87532 -5.27837,-0.87532 l -5.27836,0 -1.89873,-6.25 -1.89872,-6.25 -1.90972,6.25 -1.90972,6.25 -4.91319,0 c -2.70225,0 -4.91319,0.32523 -4.91319,0.72273 0,0.3975 1.82205,2.31 4.04899,4.25 l 4.04899,3.52727 -1.53816,5 c -2.66465,8.66175 -2.17892,9.19549 3.60935,3.96613 z m -111.54998,-1.11731 4.45578,-3.65118 3.19661,2.90118 c 1.75813,1.59565 3.5168,3.33815 3.90814,3.87222 1.68916,2.30521 1.81032,-0.69748 0.24537,-6.08074 l -1.69328,-5.82466 4.1341,-3.66869 c 2.27375,-2.01778 4.13409,-3.94505 4.13409,-4.28282 0,-0.33777 -2.47311,-0.61413 -5.4958,-0.61413 l -5.4958,0 -1.65811,-5.96389 c -0.91197,-3.28015 -1.96265,-5.77568 -2.33486,-5.54565 -0.37221,0.23004 -1.23522,2.91379 -1.9178,5.9639 l -1.24106,5.54564 -5.67829,0.0426 -5.67828,0.0426 4.45308,3.90953 4.45308,3.90953 -1.56667,6.54783 c -0.86167,3.60131 -1.36629,6.54783 -1.12138,6.54783 0.24491,0 2.4504,-1.64303 4.90108,-3.65118 z m 42.63081,147.92778 c -1.7875,-0.22182 -3.25,-0.94047 -3.25,-1.59699 0,-2.11828 4.86325,-18.94286 5.7245,-19.80411 0.45848,-0.45848 3.18303,-0.55535 6.05455,-0.21526 l 5.22095,0.61834 0,10.86071 0,10.86071 -5.25,-0.16004 c -2.8875,-0.088 -6.7125,-0.34153 -8.5,-0.56336 z m 20.75,-9.98909 0,-11.00893 5.19114,-0.61481 c 2.85513,-0.33815 5.39082,-0.41515 5.63486,-0.17111 0.69336,0.69336 6.21367,20.801 5.81901,21.19566 -0.19341,0.19341 -4.01766,0.63436 -8.49833,0.97989 l -8.14668,0.62822 0,-11.00892 z m -39,6.54402 c -1.925,-0.54345 -3.8706,-1.34596 -4.32355,-1.78336 -0.80682,-0.77912 7.45469,-18.39315 9.10547,-19.41339 0.46133,-0.28512 2.67992,-0.0511 4.93019,0.52012 l 4.09141,1.03851 -1.91666,6.65329 c -1.05417,3.65932 -2.3773,8.3408 -2.94031,10.4033 -1.12017,4.10365 -2.32426,4.45109 -8.94655,2.58153 z m 61.4878,-2.08153 c -0.36911,-1.7875 -1.58875,-6.33705 -2.7103,-10.11011 -2.1486,-7.22816 -1.7721,-8.58637 2.39071,-8.62458 0.91752,-0.008 2.35632,-0.27936 3.19734,-0.60209 1.14718,-0.44021 2.79638,1.93853 6.60264,9.52338 3.53016,7.03468 4.68692,10.23857 3.80266,10.53227 -9.96638,3.31021 -12.47914,3.17422 -13.28305,-0.71887 z m -75.4878,-2.48401 c -0.825,-0.31686 -3.46109,-1.41117 -5.85797,-2.4318 l -4.35797,-1.85568 1.75786,-2.73925 c 4.60696,-7.17898 10.11336,-14.19055 11.54702,-14.7034 0.87392,-0.31262 3.2373,0.12033 5.25197,0.96211 l 3.66303,1.53052 -5.01109,9.98575 c -2.7561,5.49217 -5.11948,9.95023 -5.25197,9.90681 -0.13248,-0.0434 -0.91588,-0.3382 -1.74088,-0.65506 z m 91.72569,-8.77921 c -2.59913,-5.23228 -4.72569,-9.88605 -4.72569,-10.34172 0,-1.00525 7.72876,-3.43073 8.80752,-2.76402 1.07997,0.66746 12.19248,16.19453 12.19248,17.03606 0,0.53831 -10.21301,5.5829 -11.30283,5.5829 -0.13519,0 -2.37236,-4.28095 -4.97148,-9.51322 z m -115.48231,-3.17318 c -3.98386,-2.49313 -7.24338,-4.8841 -7.24338,-5.31325 0,-1.07244 10.42027,-11.57439 13.46166,-13.56718 2.35745,-1.54467 2.72675,-1.47216 8.06907,1.58441 3.0792,1.76174 5.39737,3.72739 5.15151,4.36812 -0.33103,0.86263 -10.97017,16.14651 -12.03393,17.28759 -0.0888,0.0953 -3.42107,-1.86656 -7.40493,-4.35969 z m 132.84826,-3.77514 c -2.83699,-4.10384 -5.59319,-7.7304 -6.1249,-8.05902 -0.53171,-0.32861 -0.96674,-0.97796 -0.96674,-1.443 0,-0.9049 10.3553,-7.03644 11.88355,-7.03644 1.07142,0 16.11645,13.88024 16.11645,14.86872 0,0.85003 -13.35892,9.13128 -14.73015,9.13128 -0.56103,0 -3.34122,-3.35769 -6.17821,-7.46154 z m -71.67077,-7.07919 c 1.91262,-7.62048 4.79789,-13.45927 6.65098,-13.45927 1.74352,0 1.92815,0.76604 1.92815,8 l 0,8 -4.60841,0 c -4.43599,0 -4.58455,-0.0951 -3.97072,-2.54073 z m 15.57913,-5.53259 c 0,-7.04306 0.21578,-8.03177 1.69087,-7.7477 1.01137,0.19478 2.61884,2.72135 4,6.28708 3.3187,8.56785 3.14737,9.53394 -1.69087,9.53394 l -4,0 0,-8.07332 z m -27.21618,5.79159 -3.71618,-0.90095 3.98841,-6.15866 c 2.19362,-3.38726 4.34401,-6.73942 4.77864,-7.44924 0.44944,-0.73402 1.53084,-1.00638 2.50757,-0.63158 1.88902,0.72489 1.80102,1.26131 -1.71951,10.48177 l -2.12275,5.55961 -3.71618,-0.90095 z m 40.34444,-6.52865 c -2.23438,-6.58199 -2.25217,-9.18962 -0.0627,-9.18962 1.09202,0 10.27859,13.98917 9.61944,14.64832 -0.24046,0.24047 -1.95546,0.68262 -3.81111,0.98257 l -3.3739,0.54537 -2.37174,-6.98664 z m -55.0681,2.23969 -3.43985,-1.49241 6.41096,-6.46845 c 5.78832,-5.84023 8.61659,-7.48726 10.17721,-5.92663 0.298,0.298 -1.427,3.53939 -3.83333,7.2031 -2.40633,3.66371 -4.37515,7.0199 -4.37515,7.45819 0,1.1037 -0.95844,0.95357 -4.93984,-0.7738 z m 67.56682,-5.76764 c -4.59223,-7.33807 -4.84465,-8.66167 -1.65187,-8.66167 1.65549,0 13.02489,11.34997 13.02489,13.00263 0,0.364 -1.55571,1.13927 -3.45713,1.72283 l -3.45712,1.06102 -4.45877,-7.12481 z m -82.86523,-1.34769 c -5.82765,-3.24375 -5.50751,-3.76259 5.7,-9.23804 9.00024,-4.39708 9.33617,-4.48983 11.43916,-3.15834 1.09228,0.69156 8.9e-4,2.45069 -4.95382,7.98469 -3.49511,3.90374 -6.60052,7.08676 -6.90092,7.07338 -0.30039,-0.0134 -2.67838,-1.21114 -5.28442,-2.66169 z m 94.26535,-4.48803 c -5.21237,-5.58238 -6.18607,-7.11379 -5,-7.86386 0.8101,-0.51231 2.09353,-0.93836 2.85208,-0.94678 1.86942,-0.0207 19.12082,9.13242 19.12082,10.14504 0,0.71161 -9.49529,6.02659 -10.21676,5.71882 -0.15578,-0.0664 -3.19604,-3.2404 -6.75614,-7.05322 z m -52.31455,-5.36376 c -3.7331,-0.74243 -9.3581,-2.56711 -12.5,-4.05484 l -5.71255,-2.70497 5.5,-1.43058 c 9.23351,-2.40168 33.42489,-2.82586 44.00138,-0.77153 4.94924,0.96131 8.99862,2.08975 8.99862,2.50764 0,1.21512 -9.88449,4.87612 -17.5,6.48162 -8.41281,1.77359 -13.76429,1.76717 -22.78745,-0.0273 z"
       id="path2996"
       inkscape:connector-curvature="0"
       inkscape:export-filename="/home/carl/Projects/Activism/IWW-website/img/logo.png"
       inkscape:export-xdpi="90.889999"
       inkscape:export-ydpi="90.889999" />
  </g>
</svg>
